<svg xmlns="http://www.w3.org/2000/svg" xmlns:xlink="http://www.w3.org/1999/xlink" version="1.1" width="1000" height="1000" viewBox="0 0 1000 1000" xml:space="preserve">
<desc>Created with Fabric.js 3.5.0</desc>
<defs>
</defs>
<rect x="0" y="0" width="100%" height="100%" fill="#ffff66"/>
<g transform="matrix(0.6345 0 0 0.6345 500.051 498.8988)" id="716644">
<g style="" vector-effect="non-scaling-stroke">
		<g transform="matrix(0.1333 0 0 -0.1333 -0.197 133.8365)">
<path style="stroke: none; stroke-width: 1; stroke-dasharray: none; stroke-linecap: butt; stroke-dashoffset: 0; stroke-linejoin: miter; stroke-miterlimit: 4; is-custom-font: none; font-file-url: none; fill: rgb(0,0,0); fill-rule: nonzero; opacity: 1;" transform=" translate(-5910, -4905)" d="M 9372 9758 l -53 -51 l -22 32 c -19 28 -27 31 -59 29 c -21 -2 -38 0 -38 4 c 0 12 -34 10 -47 -3 c -8 -8 -17 -8 -33 1 c -12 7 -33 10 -46 7 c -13 -2 -21 0 -18 4 c 3 5 -2 9 -10 9 c -9 0 -21 -9 -28 -20 c -7 -11 -20 -20 -29 -20 c -9 0 -22 -7 -29 -15 c -7 -8 -16 -12 -21 -9 c -5 3 -12 -3 -16 -13 c -4 -10 -14 -26 -24 -36 c -9 -10 -14 -28 -11 -42 c 6 -31 -1 -31 -41 -1 c -18 14 -45 29 -60 35 c -23 9 -29 8 -34 -7 c -4 -9 -13 -23 -20 -30 c -20 -20 -16 -53 7 -59 c 11 -3 20 -14 20 -24 c 0 -11 8 -23 18 -26 c 9 -4 22 -12 27 -19 c 6 -6 26 -15 46 -18 c 38 -7 36 -4 139 -169 l 43 -69 l -7 -97 c -4 -54 -10 -121 -15 -149 c -6 -39 -5 -55 5 -63 c 21 -17 17 -89 -6 -124 c -24 -37 -27 -115 -5 -149 c 15 -22 14 -26 -11 -55 c -29 -35 -55 -39 -104 -15 c -24 12 -40 14 -59 8 c -25 -9 -26 -12 -26 -89 c 0 -86 8 -115 30 -115 c 20 0 65 -44 65 -63 c 0 -9 -4 -19 -10 -22 c -17 -10 -11 -43 10 -58 c 18 -12 18 -16 6 -26 c -13 -11 -12 -18 1 -57 c 8 -24 19 -46 24 -50 c 5 -3 9 -18 9 -34 c 0 -16 5 -32 10 -35 c 7 -4 10 -488 10 -1420 c 0 -1289 -1 -1413 -16 -1419 c -12 -5 -15 -14 -10 -41 c 4 -22 1 -47 -9 -71 c -9 -22 -13 -50 -9 -68 c 4 -23 0 -39 -15 -58 c -12 -14 -21 -33 -21 -42 c 0 -9 -4 -16 -10 -16 c -5 0 -19 -9 -30 -20 c -28 -28 -37 -25 -50 16 c -10 28 -10 41 0 60 c 10 18 10 26 1 38 c -7 8 -10 24 -6 36 c 4 12 0 26 -9 36 c -9 8 -16 26 -16 40 c 0 13 -4 24 -10 24 c -16 0 -12 52 6 71 c 22 24 11 51 -18 47 c -24 -3 -40 -48 -17 -48 c 18 0 2 -99 -21 -131 c -14 -19 -16 -29 -8 -37 c 9 -9 7 -17 -5 -30 c -16 -17 -16 -20 -2 -32 c 24 -20 19 -73 -10 -98 c -18 -15 -25 -32 -25 -56 c 0 -25 -7 -39 -22 -50 c -20 -14 -21 -19 -11 -46 c 16 -43 5 -96 -23 -115 c -19 -12 -22 -21 -17 -48 c 5 -32 3 -35 -39 -56 c -24 -11 -57 -34 -73 -51 l -29 -30 l 22 -23 c 12 -13 22 -35 22 -50 c 0 -23 -4 -27 -28 -27 c -32 0 -71 -33 -53 -45 c 6 -3 11 -19 11 -35 c 0 -16 4 -31 9 -34 c 15 -9 22 -86 22 -216 c -2 -211 -12 -360 -27 -373 c -7 -7 -20 -18 -29 -25 c -8 -7 -15 -24 -15 -37 c 0 -24 -2 -25 -80 -25 c -44 0 -88 -5 -98 -10 c -9 -6 -48 -24 -85 -40 l -69 -30 l -4019 0 l -4019 0 l 0 -1735 l 0 -1735 l 5910 0 l 5910 0 l 0 1735 l 0 1735 l -909 0 l -909 0 l -111 46 c -107 45 -111 48 -111 77 c 0 18 -9 41 -22 55 c -22 23 -23 31 -26 243 c -3 208 -2 222 17 255 c 12 19 21 43 21 53 c 0 9 5 22 11 28 c 17 17 4 41 -35 64 c -29 17 -35 26 -32 48 c 2 15 8 36 13 45 c 12 22 2 76 -21 111 c -11 17 -29 27 -56 31 c -36 6 -40 9 -40 36 c 0 16 -5 39 -11 51 c -7 11 -12 58 -11 104 c 0 70 -3 87 -21 110 c -17 22 -21 41 -22 102 c -1 42 -6 85 -12 95 c -8 14 -8 25 0 37 c 9 14 7 22 -7 38 c -10 10 -19 30 -21 43 c -1 12 -6 35 -10 50 c -4 14 -2 35 4 46 c 13 24 5 52 -14 52 c -18 0 -24 -21 -13 -42 c 4 -10 7 -42 6 -73 c -2 -43 -7 -60 -25 -77 c -12 -11 -19 -26 -16 -32 c 11 -18 11 -51 0 -58 c -8 -5 -7 -14 2 -31 c 11 -21 10 -30 -8 -65 c -12 -23 -21 -50 -21 -60 c 0 -11 -6 -25 -14 -31 c -19 -16 -28 22 -20 81 c 5 40 4 45 -25 66 c -23 17 -31 30 -31 55 c 0 18 -4 39 -9 47 c -6 8 -7 19 -3 25 c 4 5 7 33 8 62 c 1 43 -2 53 -16 58 c -14 4 -20 20 -25 58 c -4 29 -5 660 -3 1403 c 2 1023 6 1354 15 1365 c 6 8 15 39 19 69 c 4 32 14 60 23 67 c 14 10 14 15 2 34 c -11 19 -11 23 4 31 c 13 8 15 18 10 49 c -6 34 -4 39 12 39 c 27 0 71 53 89 107 l 15 48 l -71 73 c -75 75 -92 83 -121 56 c -17 -15 -20 -14 -48 5 l -30 22 l 21 35 c 22 38 21 81 -5 132 c -15 30 -11 99 6 120 c 7 9 10 67 8 161 l -3 148 l 32 46 c 17 26 35 49 40 52 c 20 12 63 112 69 160 c 5 42 10 51 29 53 c 25 4 45 42 36 67 c -4 10 0 15 10 15 c 9 0 16 6 16 14 c 0 7 7 19 15 26 c 8 7 15 27 15 45 c 0 36 -28 95 -45 95 c -5 0 -34 -23 -63 -52 z m -332 -69 c 0 -6 8 -8 19 -4 c 11 3 22 1 26 -4 c 4 -7 12 -7 24 1 c 15 9 26 8 52 -5 c 29 -14 34 -14 37 -2 c 4 18 32 20 32 3 c 1 -8 5 -7 13 4 c 8 10 18 14 27 8 c 23 -14 -25 -79 -58 -79 c -89 1 -124 -7 -147 -33 l -23 -27 l -50 42 c -30 25 -51 50 -51 62 c 0 18 1 18 10 3 c 5 -10 16 -15 24 -12 c 8 4 15 1 15 -5 c 0 -5 13 -9 30 -8 c 33 2 36 7 18 25 c -7 7 -8 12 -4 12 c 5 0 3 7 -4 15 c -9 10 -9 15 -1 15 c 6 0 11 -5 11 -11 z m 55 -179 c 3 -5 2 -10 -4 -10 c -5 0 -13 5 -16 10 c -3 6 -2 10 4 10 c 5 0 13 -4 16 -10 z" stroke-linecap="round"/>
</g>
		<g transform="matrix(0.1333 0 0 -0.1333 213.6624 -413.1836)">
<path style="stroke: none; stroke-width: 1; stroke-dasharray: none; stroke-linecap: butt; stroke-dashoffset: 0; stroke-linejoin: miter; stroke-miterlimit: 4; is-custom-font: none; font-file-url: none; fill: rgb(0,0,0); fill-rule: nonzero; opacity: 1;" transform=" translate(-7512.5, -9008.8247)" d="M 7417 9214 c -4 -15 -31 -328 -32 -369 c 0 -5 57 -19 128 -31 c 70 -11 127 -17 127 -12 c 0 9 -77 163 -163 327 c -40 75 -56 98 -60 85 z" stroke-linecap="round"/>
</g>
		<g transform="matrix(0.1333 0 0 -0.1333 183.3282 -411.9828)">
<path style="stroke: none; stroke-width: 1; stroke-dasharray: none; stroke-linecap: butt; stroke-dashoffset: 0; stroke-linejoin: miter; stroke-miterlimit: 4; is-custom-font: none; font-file-url: none; fill: rgb(0,0,0); fill-rule: nonzero; opacity: 1;" transform=" translate(-7284.9867, -8999.8218)" d="M 7281 9004 c -56 -108 -100 -199 -97 -201 c 8 -9 138 29 142 41 c 8 20 63 350 60 354 c -2 1 -49 -85 -105 -194 z" stroke-linecap="round"/>
</g>
		<g transform="matrix(0.1333 0 0 -0.1333 167.8616 -32.0876)">
<path style="stroke: none; stroke-width: 1; stroke-dasharray: none; stroke-linecap: butt; stroke-dashoffset: 0; stroke-linejoin: miter; stroke-miterlimit: 4; is-custom-font: none; font-file-url: none; fill: rgb(0,0,0); fill-rule: nonzero; opacity: 1;" transform=" translate(-7169, -6150)" d="M 7289 8776 c -2 -3 -32 -6 -67 -8 l -62 -3 l 0 -47 c 0 -82 -129 -4875 -135 -5040 l -7 -158 l 131 0 c 72 0 131 1 131 3 c 1 11 40 4908 40 5060 c 0 158 -3 197 -13 197 c -8 0 -16 -2 -18 -4 z" stroke-linecap="round"/>
</g>
		<g transform="matrix(0.1333 0 0 -0.1333 223.7929 -32.0876)">
<path style="stroke: none; stroke-width: 1; stroke-dasharray: none; stroke-linecap: butt; stroke-dashoffset: 0; stroke-linejoin: miter; stroke-miterlimit: 4; is-custom-font: none; font-file-url: none; fill: rgb(0,0,0); fill-rule: nonzero; opacity: 1;" transform=" translate(-7588.5, -6150)" d="M 7383 7354 c 4 -785 7 -1969 7 -2631 l 0 -1203 l 205 0 l 205 0 l 0 29 c 0 59 -129 4862 -135 5036 l -7 180 l -51 0 c -29 0 -92 3 -141 8 l -89 7 l 6 -1426 z" stroke-linecap="round"/>
</g>
		<g transform="matrix(0.1333 0 0 -0.1333 52.9899 -197.3496)">
<path style="stroke: none; stroke-width: 1; stroke-dasharray: none; stroke-linecap: butt; stroke-dashoffset: 0; stroke-linejoin: miter; stroke-miterlimit: 4; is-custom-font: none; font-file-url: none; fill: rgb(0,0,0); fill-rule: nonzero; opacity: 1;" transform=" translate(-6307.5, -7390)" d="M 6430 7709 l 0 -170 l -32 25 c -90 67 -230 53 -310 -31 c -15 -15 -39 -55 -55 -88 c -26 -56 -28 -69 -28 -185 c 0 -157 17 -211 90 -287 c 54 -55 97 -73 175 -73 c 50 0 117 27 149 59 l 20 20 l 7 -34 l 6 -35 l 79 0 l 79 0 l 0 485 l 0 485 l -90 0 l -90 0 l 0 -171 z m -67 -260 c 12 -6 32 -21 45 -32 c 21 -19 22 -28 22 -159 c 0 -77 -5 -148 -10 -159 c -28 -52 -129 -65 -179 -23 c -87 73 -75 318 17 368 c 33 18 75 20 105 5 z" stroke-linecap="round"/>
</g>
		<g transform="matrix(0.1333 0 0 -0.1333 -537.9003 -194.6821)">
<path style="stroke: none; stroke-width: 1; stroke-dasharray: none; stroke-linecap: butt; stroke-dashoffset: 0; stroke-linejoin: miter; stroke-miterlimit: 4; is-custom-font: none; font-file-url: none; fill: rgb(0,0,0); fill-rule: nonzero; opacity: 1;" transform=" translate(-1875.8831, -7370)" d="M 1391 7568 c 32 -145 77 -351 101 -458 l 43 -195 l 97 -3 l 96 -3 l 73 300 c 40 166 75 299 77 296 c 3 -2 37 -136 76 -297 l 71 -293 l 96 -3 l 96 -3 l 98 443 c 54 244 100 451 103 461 c 4 15 -5 17 -92 17 c -53 0 -96 -3 -96 -6 c 0 -8 -109 -584 -116 -614 c -6 -24 -20 30 -130 508 l -26 113 l -81 -3 l -82 -3 l -70 -305 c -39 -168 -73 -311 -76 -319 c -3 -7 -32 130 -65 305 l -60 319 l -96 3 l -95 3 l 58 -263 z" stroke-linecap="round"/>
</g>
		<g transform="matrix(0.1333 0 0 -0.1333 -212.6736 -189.2916)">
<path style="stroke: none; stroke-width: 1; stroke-dasharray: none; stroke-linecap: butt; stroke-dashoffset: 0; stroke-linejoin: miter; stroke-miterlimit: 4; is-custom-font: none; font-file-url: none; fill: rgb(0,0,0); fill-rule: nonzero; opacity: 1;" transform=" translate(-4315, -7329.5796)" d="M 4210 7675 l 0 -85 l -50 0 l -50 0 l 0 -65 l 0 -65 l 49 0 l 50 0 l 3 -217 c 4 -253 11 -279 88 -320 c 47 -25 146 -32 194 -13 c 24 9 26 14 26 75 l 0 65 l -43 0 c -81 0 -82 2 -85 219 l -3 191 l 60 0 l 61 0 l 0 65 l 0 64 l -57 3 l -58 3 l -3 83 l -3 82 l -89 0 l -90 0 l 0 -85 z" stroke-linecap="round"/>
</g>
		<g transform="matrix(0.1333 0 0 -0.1333 -417.0656 -179.4313)">
<path style="stroke: none; stroke-width: 1; stroke-dasharray: none; stroke-linecap: butt; stroke-dashoffset: 0; stroke-linejoin: miter; stroke-miterlimit: 4; is-custom-font: none; font-file-url: none; fill: rgb(0,0,0); fill-rule: nonzero; opacity: 1;" transform=" translate(-2782.085, -7255.6472)" d="M 2711 7600 c -89 -19 -172 -88 -214 -179 c -18 -39 -22 -65 -22 -171 c 0 -110 3 -131 23 -171 c 31 -63 86 -117 152 -148 c 48 -23 68 -26 155 -26 c 89 0 106 3 155 27 c 31 15 68 41 84 57 l 29 30 l -31 39 c -53 66 -59 69 -90 39 c -36 -34 -72 -47 -133 -47 c -77 0 -134 39 -157 107 l -11 33 l 217 2 l 217 3 l 3 38 c 9 104 -35 243 -95 299 c -61 59 -184 88 -282 68 z m 151 -166 c 22 -20 48 -73 48 -99 c 0 -13 -20 -15 -129 -15 l -130 0 l 9 29 c 13 47 30 71 63 92 c 39 24 107 21 139 -7 z" stroke-linecap="round"/>
</g>
		<g transform="matrix(0.1333 0 0 -0.1333 -285.5431 -179.1646)">
<path style="stroke: none; stroke-width: 1; stroke-dasharray: none; stroke-linecap: butt; stroke-dashoffset: 0; stroke-linejoin: miter; stroke-miterlimit: 4; is-custom-font: none; font-file-url: none; fill: rgb(0,0,0); fill-rule: nonzero; opacity: 1;" transform=" translate(-3768.5, -7253.646)" d="M 3679 7597 c -104 -30 -169 -94 -177 -176 c -6 -66 2 -93 40 -136 c 40 -46 84 -69 188 -95 c 105 -27 138 -44 146 -75 c 21 -84 -132 -119 -198 -45 c -16 17 -28 37 -28 45 c 0 12 -17 15 -86 15 l -87 0 l 6 -41 c 15 -114 155 -196 316 -187 c 122 7 205 53 242 133 c 23 49 24 94 4 142 c -31 74 -84 107 -235 143 c -133 33 -166 69 -116 126 c 20 24 31 28 76 28 c 45 0 56 -4 76 -28 c 13 -15 24 -34 24 -42 c 0 -11 19 -14 95 -14 l 95 0 l -7 33 c -13 71 -58 123 -135 157 c -59 26 -177 34 -239 17 z" stroke-linecap="round"/>
</g>
		<g transform="matrix(0.1333 0 0 -0.1333 -136.3579 -179.141)">
<path style="stroke: none; stroke-width: 1; stroke-dasharray: none; stroke-linecap: butt; stroke-dashoffset: 0; stroke-linejoin: miter; stroke-miterlimit: 4; is-custom-font: none; font-file-url: none; fill: rgb(0,0,0); fill-rule: nonzero; opacity: 1;" transform=" translate(-4887.3911, -7253.4692)" d="M 4795 7597 c -27 -8 -63 -21 -80 -29 c -56 -30 -115 -111 -115 -158 c 0 -19 6 -20 89 -20 c 80 0 90 2 96 20 c 10 33 54 60 97 60 c 56 0 98 -43 98 -99 l 0 -41 l -63 0 c -141 0 -258 -42 -299 -108 c -45 -73 -41 -175 9 -240 c 71 -93 255 -110 339 -31 l 22 21 l 7 -31 l 7 -31 l 95 0 c 94 0 95 0 89 23 c -19 64 -26 150 -26 317 c 0 201 -9 239 -61 287 c -63 57 -205 85 -304 60 z m 185 -437 c 0 -47 -4 -64 -20 -80 c -65 -65 -190 -45 -190 30 c 0 74 47 109 148 110 l 62 0 l 0 -60 z" stroke-linecap="round"/>
</g>
		<g transform="matrix(0.1333 0 0 -0.1333 -41.9432 -179.8059)">
<path style="stroke: none; stroke-width: 1; stroke-dasharray: none; stroke-linecap: butt; stroke-dashoffset: 0; stroke-linejoin: miter; stroke-miterlimit: 4; is-custom-font: none; font-file-url: none; fill: rgb(0,0,0); fill-rule: nonzero; opacity: 1;" transform=" translate(-5595.5, -7258.4577)" d="M 5600 7597 c -25 -7 -62 -25 -82 -40 l -36 -28 l -7 31 l -7 30 l -84 0 l -84 0 l 0 -340 l 0 -340 l 90 0 l 90 0 l 0 239 c 0 225 1 240 21 264 c 29 38 88 54 140 38 c 64 -19 69 -40 69 -311 l 0 -230 l 91 0 l 90 0 l -3 273 c -3 262 -4 274 -26 320 c -42 84 -155 124 -262 94 z" stroke-linecap="round"/>
</g>
		<g transform="matrix(0.1333 0 0 -0.1333 -334.6763 -15.4162)">
<path style="stroke: none; stroke-width: 1; stroke-dasharray: none; stroke-linecap: butt; stroke-dashoffset: 0; stroke-linejoin: miter; stroke-miterlimit: 4; is-custom-font: none; font-file-url: none; fill: rgb(0,0,0); fill-rule: nonzero; opacity: 1;" transform=" translate(-3400, -6025.5)" d="M 3110 6025 l 0 -485 l 90 0 l 90 0 l 0 244 l 0 244 l 31 26 c 24 21 41 26 82 26 c 102 -1 107 -15 107 -304 l 0 -236 l 90 0 l 90 0 l 0 259 c 0 273 -4 300 -48 360 c -59 79 -202 95 -301 34 l -51 -32 l -2 172 l -3 172 l -87 3 l -88 3 l 0 -486 z" stroke-linecap="round"/>
</g>
		<g transform="matrix(0.1333 0 0 -0.1333 -464.0819 -64.7704)">
<path style="stroke: none; stroke-width: 1; stroke-dasharray: none; stroke-linecap: butt; stroke-dashoffset: 0; stroke-linejoin: miter; stroke-miterlimit: 4; is-custom-font: none; font-file-url: none; fill: rgb(0,0,0); fill-rule: nonzero; opacity: 1;" transform=" translate(-2429.4112, -6395.7542)" d="M 2359 6461 c -60 -60 -26 -148 62 -158 c 38 -4 50 -1 77 22 c 27 22 32 34 32 68 c -1 64 -36 97 -105 97 c -27 0 -44 -8 -66 -29 z" stroke-linecap="round"/>
</g>
		<g transform="matrix(0.1333 0 0 -0.1333 -413.2734 -6.2722)">
<path style="stroke: none; stroke-width: 1; stroke-dasharray: none; stroke-linecap: butt; stroke-dashoffset: 0; stroke-linejoin: miter; stroke-miterlimit: 4; is-custom-font: none; font-file-url: none; fill: rgb(0,0,0); fill-rule: nonzero; opacity: 1;" transform=" translate(-2810.5, -5956.9328)" d="M 2710 6305 l 0 -85 l -50 0 l -50 0 l 0 -64 l 0 -65 l 48 -3 l 47 -3 l 5 -227 c 5 -210 7 -229 26 -255 c 47 -64 125 -90 224 -75 l 45 7 l 3 71 l 3 71 l -47 0 c -73 0 -75 6 -72 223 l 3 185 l 58 3 l 57 3 l 0 64 l 0 65 l -60 0 l -60 0 l 0 85 l 0 85 l -90 0 l -90 0 l 0 -85 z" stroke-linecap="round"/>
</g>
		<g transform="matrix(0.1333 0 0 -0.1333 -550.2071 3.9886)">
<path style="stroke: none; stroke-width: 1; stroke-dasharray: none; stroke-linecap: butt; stroke-dashoffset: 0; stroke-linejoin: miter; stroke-miterlimit: 4; is-custom-font: none; font-file-url: none; fill: rgb(0,0,0); fill-rule: nonzero; opacity: 1;" transform=" translate(-1783.5602, -5880)" d="M 1330 6215 c 0 -5 89 -353 142 -557 l 31 -118 l 78 0 c 65 0 78 3 83 18 c 41 145 110 370 116 381 c 5 10 11 4 18 -20 c 14 -44 64 -213 92 -306 l 21 -73 l 79 0 c 44 0 80 2 80 5 c 0 5 156 623 166 658 c 5 15 -4 17 -84 17 l -89 0 l -38 -186 c -20 -103 -41 -199 -45 -213 c -7 -25 -8 -25 -18 14 c -7 22 -34 117 -60 210 l -49 170 l -68 0 l -68 0 l -60 -209 c -39 -133 -63 -201 -67 -190 c -4 11 -24 106 -46 212 l -39 192 l -87 0 c -49 0 -88 -2 -88 -5 z" stroke-linecap="round"/>
</g>
		<g transform="matrix(0.1333 0 0 -0.1333 -464.0031 3.9886)">
<path style="stroke: none; stroke-width: 1; stroke-dasharray: none; stroke-linecap: butt; stroke-dashoffset: 0; stroke-linejoin: miter; stroke-miterlimit: 4; is-custom-font: none; font-file-url: none; fill: rgb(0,0,0); fill-rule: nonzero; opacity: 1;" transform=" translate(-2430, -5880)" d="M 2340 5880 l 0 -340 l 90 0 l 90 0 l 0 340 l 0 340 l -90 0 l -90 0 l 0 -340 z" stroke-linecap="round"/>
</g>
		<g transform="matrix(0.1333 0 0 -0.1333 -448.6771 168.6505)">
<path style="stroke: none; stroke-width: 1; stroke-dasharray: none; stroke-linecap: butt; stroke-dashoffset: 0; stroke-linejoin: miter; stroke-miterlimit: 4; is-custom-font: none; font-file-url: none; fill: rgb(0,0,0); fill-rule: nonzero; opacity: 1;" transform=" translate(-2545, -4645)" d="M 2230 4645 l 0 -485 l 90 0 l 90 0 l 0 103 l 0 103 l 35 34 c 19 18 36 32 38 29 c 2 -2 41 -64 88 -136 l 84 -133 l 103 0 c 56 0 102 2 102 5 c 0 3 -59 93 -132 200 l -131 194 l 122 140 l 122 141 l -113 0 l -113 -1 l -100 -119 l -100 -120 l -3 265 l -2 265 l -90 0 l -90 0 l 0 -485 z" stroke-linecap="round"/>
</g>
		<g transform="matrix(0.1333 0 0 -0.1333 -232.3644 118.6967)">
<path style="stroke: none; stroke-width: 1; stroke-dasharray: none; stroke-linecap: butt; stroke-dashoffset: 0; stroke-linejoin: miter; stroke-miterlimit: 4; is-custom-font: none; font-file-url: none; fill: rgb(0,0,0); fill-rule: nonzero; opacity: 1;" transform=" translate(-4167.2927, -5019.7523)" d="M 4090 5085 c -34 -36 -32 -101 4 -132 c 30 -26 109 -32 137 -10 c 44 34 51 101 14 141 c -20 22 -33 26 -78 26 c -44 0 -58 -4 -77 -25 z" stroke-linecap="round"/>
</g>
		<g transform="matrix(0.1333 0 0 -0.1333 -556.6119 172.5752)">
<path style="stroke: none; stroke-width: 1; stroke-dasharray: none; stroke-linecap: butt; stroke-dashoffset: 0; stroke-linejoin: miter; stroke-miterlimit: 4; is-custom-font: none; font-file-url: none; fill: rgb(0,0,0); fill-rule: nonzero; opacity: 1;" transform=" translate(-1735.5, -4615.57)" d="M 1380 4778 c 0 -167 5 -332 11 -368 c 28 -174 164 -269 373 -258 c 108 6 164 27 229 87 c 25 23 55 65 68 94 c 24 51 24 59 27 400 l 3 347 l -95 0 l -96 0 l 0 -317 c 0 -335 -5 -379 -45 -419 c -54 -54 -169 -56 -230 -3 c -50 44 -55 86 -55 434 l 0 305 l -95 0 l -95 0 l 0 -302 z" stroke-linecap="round"/>
</g>
		<g transform="matrix(0.1333 0 0 -0.1333 -372.7242 186.7628)">
<path style="stroke: none; stroke-width: 1; stroke-dasharray: none; stroke-linecap: butt; stroke-dashoffset: 0; stroke-linejoin: miter; stroke-miterlimit: 4; is-custom-font: none; font-file-url: none; fill: rgb(0,0,0); fill-rule: nonzero; opacity: 1;" transform=" translate(-3114.6174, -4509.1911)" d="M 3202 4853 c -12 -3 -40 -21 -62 -42 l -39 -37 l -3 31 l -3 30 l -87 3 l -88 3 l 0 -341 l 0 -340 l 90 0 l 90 0 l 0 221 c 0 139 4 228 11 241 c 16 31 92 60 147 57 l 47 -3 l 3 86 c 3 82 2 86 -20 92 c -25 6 -49 6 -86 -1 z" stroke-linecap="round"/>
</g>
		<g transform="matrix(0.1333 0 0 -0.1333 -301.21 187.4267)">
<path style="stroke: none; stroke-width: 1; stroke-dasharray: none; stroke-linecap: butt; stroke-dashoffset: 0; stroke-linejoin: miter; stroke-miterlimit: 4; is-custom-font: none; font-file-url: none; fill: rgb(0,0,0); fill-rule: nonzero; opacity: 1;" transform=" translate(-3651, -4504.2109)" d="M 3574 4850 c -96 -20 -165 -68 -195 -135 c -33 -73 -31 -75 71 -75 c 86 0 91 1 100 24 c 12 33 48 56 87 56 c 68 0 103 -36 103 -105 l 0 -35 l -63 0 c -129 0 -225 -30 -279 -87 c -36 -38 -48 -73 -48 -141 c 1 -117 80 -191 213 -199 c 66 -5 77 -2 130 26 l 58 30 l 9 -24 c 9 -24 13 -25 101 -25 l 91 0 l -7 28 c -4 15 -10 133 -14 262 c -8 265 -12 284 -80 342 c -63 54 -180 79 -277 58 z m 164 -446 c -3 -59 -6 -69 -30 -87 c -15 -11 -49 -22 -77 -25 c -43 -4 -53 -1 -75 21 c -32 32 -34 74 -5 111 c 29 36 52 45 127 45 l 63 1 l -3 -66 z" stroke-linecap="round"/>
</g>
		<g transform="matrix(0.1333 0 0 -0.1333 -162.0099 186.7308)">
<path style="stroke: none; stroke-width: 1; stroke-dasharray: none; stroke-linecap: butt; stroke-dashoffset: 0; stroke-linejoin: miter; stroke-miterlimit: 4; is-custom-font: none; font-file-url: none; fill: rgb(0,0,0); fill-rule: nonzero; opacity: 1;" transform=" translate(-4695, -4509.4322)" d="M 4715 4851 c -41 -10 -75 -29 -107 -59 l -28 -26 l 0 37 l 0 37 l -90 0 l -90 0 l 0 -340 l 0 -340 l 95 0 l 95 0 l 0 245 l 0 246 l 26 24 c 49 46 137 45 174 -2 c 19 -24 20 -40 20 -269 l 0 -244 l 90 0 l 90 0 l 0 256 c 0 151 -4 273 -11 298 c -27 109 -139 167 -264 137 z" stroke-linecap="round"/>
</g>
		<g transform="matrix(0.1333 0 0 -0.1333 -65.5855 187.2599)">
<path style="stroke: none; stroke-width: 1; stroke-dasharray: none; stroke-linecap: butt; stroke-dashoffset: 0; stroke-linejoin: miter; stroke-miterlimit: 4; is-custom-font: none; font-file-url: none; fill: rgb(0,0,0); fill-rule: nonzero; opacity: 1;" transform=" translate(-5418.1857, -4505.4631)" d="M 5353 4850 c -162 -34 -250 -172 -241 -379 c 5 -111 29 -170 95 -233 c 65 -63 122 -83 238 -83 c 89 0 106 3 155 27 c 31 15 68 41 84 57 l 29 30 l -31 39 c -50 63 -57 67 -82 42 c -32 -32 -83 -50 -143 -50 c -68 0 -113 28 -145 90 l -22 45 l 217 5 l 218 5 l -1 80 c -2 155 -57 258 -163 304 c -58 25 -148 34 -208 21 z m 149 -166 c 22 -20 48 -73 48 -99 c 0 -13 -19 -15 -125 -15 c -138 0 -138 0 -111 65 c 30 70 134 97 188 49 z" stroke-linecap="round"/>
</g>
		<g transform="matrix(0.1333 0 0 -0.1333 -232.0031 187.9887)">
<path style="stroke: none; stroke-width: 1; stroke-dasharray: none; stroke-linecap: butt; stroke-dashoffset: 0; stroke-linejoin: miter; stroke-miterlimit: 4; is-custom-font: none; font-file-url: none; fill: rgb(0,0,0); fill-rule: nonzero; opacity: 1;" transform=" translate(-4170, -4500)" d="M 4080 4500 l 0 -340 l 90 0 l 90 0 l 0 340 l 0 340 l -90 0 l -90 0 l 0 -340 z" stroke-linecap="round"/>
</g>
</g>
</g>
</svg>